<?xml version="1.0" encoding="utf-8"?>
<!-- Generator: Adobe Illustrator 16.0.0, SVG Export Plug-In . SVG Version: 6.00 Build 0)  -->
<!DOCTYPE svg PUBLIC "-//W3C//DTD SVG 1.1//EN" "http://www.w3.org/Graphics/SVG/1.1/DTD/svg11.dtd">
<svg version="1.1" id="Layer_1" xmlns="http://www.w3.org/2000/svg" xmlns:xlink="http://www.w3.org/1999/xlink" x="0px" y="0px"
	 width="150px" height="41px" viewBox="74.548 179.912 150 41" enable-background="new 74.548 179.912 150 41" xml:space="preserve"
	>
<polygon fill="#4EBFA8" points="94.618,220.467 99.635,217.571 104.651,214.674 104.651,208.879 104.651,203.088 99.635,200.189 
	94.618,197.293 89.599,200.189 84.583,203.088 84.583,208.879 84.583,214.674 89.599,217.571 "/>
<polygon fill="#097D95" points="84.583,203.088 89.599,200.189 94.618,197.293 94.618,191.498 94.618,185.705 89.599,182.811 
	84.583,179.912 79.565,182.811 74.548,185.705 74.548,191.498 74.548,197.293 79.565,200.189 "/>
<polygon fill="#0EADB5" points="94.618,208.879 94.618,185.705 84.583,191.498 84.583,214.674 "/>
<polygon fill="#084F79" points="74.548,197.293 74.548,185.705 84.583,191.498 84.583,203.088 "/>
<polygon fill="#128A75" points="94.618,208.77 94.618,197.184 104.651,202.979 104.651,214.564 "/>
<path fill="#FFFFFF" d="M114.615,200.157v-16.951c0-0.341,0.28-0.623,0.623-0.623h1.589c0.343,0,0.624,0.282,0.624,0.623v16.951
	c0,2.367,0.53,3.24,3.833,3.24h6.013c0.219,0,0.343,0.157,0.343,0.374v1.465c0,0.186-0.125,0.406-0.311,0.436
	c-0.811,0.125-3.147,0.281-6.077,0.281C117.917,205.953,114.615,205.298,114.615,200.157z M132.781,205.734
	c0.343,0,0.624-0.279,0.624-0.623V189.22c0-0.342-0.281-0.624-0.624-0.624h-1.496c-0.342,0-0.623,0.282-0.623,0.624v15.892
	c0,0.344,0.281,0.623,0.623,0.623H132.781z M132.843,182.116h-1.589c-0.342,0-0.623,0.279-0.623,0.624v2.49
	c0,0.342,0.28,0.625,0.623,0.625h1.589c0.343-0.001,0.624-0.283,0.624-0.625v-2.49C133.467,182.396,133.186,182.116,132.843,182.116
	z M145.681,188.379h-2.212c-2.118,0-5.453,0.811-5.453,5.609v11.123c0,0.344,0.218,0.623,0.562,0.623h1.621
	c0.342,0,0.56-0.279,0.56-0.623v-11.123c0-2.338,0.592-3.24,2.711-3.24h2.212c2.118,0,2.71,0.902,2.71,3.24v11.123
	c0,0.344,0.22,0.623,0.562,0.623h1.621c0.342,0,0.56-0.279,0.56-0.623v-11.123C151.134,189.189,147.799,188.379,145.681,188.379z
	 M178.4,203.742h-2.523c-1.713,0-2.306-0.313-2.306-2.121v-10.844h4.862c0.341,0,0.59-0.249,0.59-0.561v-1.06
	c0-0.342-0.249-0.562-0.59-0.562h-4.862v-3.303c0-0.312-0.218-0.591-0.529-0.591c0,0-0.031,0-0.063,0l-1.526,0.249
	c-0.343,0.063-0.624,0.279-0.624,0.592v3.201c-0.105-0.094-0.239-0.154-0.39-0.154h-3.826c-0.01,0-0.02,0.005-0.03,0.006h-1.613
	c-0.312,0-0.436,0.062-0.623,0.281l-6.231,7.011v-12.961c0-0.344-0.281-0.624-0.624-0.624h-1.497c-0.343,0-0.622,0.28-0.622,0.624
	v22.185c0,0.344,0.28,0.623,0.622,0.623h1.497c0.343,0,0.624-0.279,0.624-0.623v-7.447l6.2,7.666
	c0.25,0.313,0.375,0.405,0.717,0.405h2.243c0.218-0.001,0.343-0.188,0.343-0.405c0-0.094-0.032-0.219-0.094-0.281l-6.917-8.352
	l5.605-6.064c0.106,0.099,0.245,0.162,0.4,0.162h3.826c0.15,0,0.285-0.062,0.39-0.155v10.981c0,3.365,1.682,4.332,4.611,4.332
	c1.122,0,2.4-0.094,2.993-0.186c0.465-0.063,0.621-0.25,0.621-0.531v-1.061C179.053,203.866,178.835,203.742,178.4,203.742z
	 M182.886,185.855h1.589c0.344-0.001,0.623-0.283,0.623-0.625v-2.49c0-0.345-0.28-0.624-0.623-0.624h-1.589
	c-0.342,0-0.623,0.279-0.623,0.624v2.49C182.263,185.572,182.544,185.855,182.886,185.855z M185.035,205.111V189.22
	c0-0.342-0.28-0.624-0.622-0.624h-1.496c-0.344,0-0.623,0.282-0.623,0.624v15.892c0,0.344,0.279,0.623,0.623,0.623h1.496
	C184.756,205.734,185.035,205.455,185.035,205.111z M199.619,188.723c-1.029-0.189-2.461-0.344-3.895-0.344
	c-4.27,0-6.637,2.99-6.637,7.572v2.431c0,4.579,2.399,7.571,6.637,7.571c1.464,0,2.866-0.156,3.895-0.344
	c0.499-0.092,0.624-0.279,0.624-0.683v-1.123c0-0.312-0.25-0.468-0.529-0.468c-0.062,0-0.095,0-0.125,0
	c-1.372,0.156-2.338,0.219-3.865,0.219c-2.524,0-3.896-1.684-3.896-5.173v-2.431c0-3.521,1.403-5.173,3.896-5.173
	c1.526,0,2.493,0.062,3.865,0.22c0.03,0,0.062,0,0.125,0c0.279,0,0.529-0.158,0.529-0.469v-1.122
	C200.242,188.971,200.117,188.816,199.619,188.723z M206.225,182.303h-1.621c-0.342,0-0.561,0.281-0.561,0.592v22.217
	c0,0.344,0.25,0.623,0.561,0.623h1.621c0.342,0,0.561-0.313,0.561-0.623v-22.217C206.786,182.553,206.538,182.303,206.225,182.303z
	 M224.548,195.671v1.681c0,0.407-0.218,0.686-0.592,0.686h-10.438v0.438c0,3.708,1.462,5.08,4.329,5.08
	c1.809,0,4.114-0.125,5.549-0.344c0.063,0,0.092,0,0.154,0c0.25,0,0.498,0.124,0.498,0.436v1.061c0,0.404-0.123,0.623-0.623,0.715
	c-1.775,0.345-3.488,0.531-5.577,0.531c-3.583,0-7.073-1.684-7.073-7.479v-2.804c0-4.457,2.462-7.293,6.919-7.293
	C222.242,188.378,224.548,191.244,224.548,195.671z M221.774,195.671c0-3.522-1.341-4.894-4.081-4.894
	c-2.681,0-4.175,1.526-4.175,4.894v0.279h8.256V195.671z M119.582,218.188c0.033,0.058,0.056,0.112,0.056,0.158
	c0,0.09-0.056,0.168-0.179,0.168h-0.146c-0.056,0-0.135-0.056-0.169-0.101l-2.39-3.658c-0.067,0-0.124,0-0.18,0
	c-0.101,0-0.179,0-0.303,0c-0.438,0-1.448-0.013-1.448-0.013v3.558c0,0.112-0.079,0.214-0.191,0.214h-0.112
	c-0.112,0-0.19-0.102-0.19-0.214v-7.923c0-0.101,0.089-0.202,0.19-0.213c0.393-0.021,1.268-0.044,1.75-0.044
	c2.021,0,3.053,0.572,3.053,2.289v0.057c0,1.368-0.685,2.009-2.008,2.232L119.582,218.188z M118.83,212.466v-0.057
	c0-1.403-0.886-1.818-2.559-1.818c-0.471,0-1.11,0.013-1.447,0.045v3.636c0.303,0,1.122,0.012,1.447,0.012
	C118.011,214.283,118.83,213.902,118.83,212.466z M125.261,215.102v0.303c0,0.124-0.1,0.215-0.213,0.215h-3.793v0.234
	c0,1.885,0.909,2.289,2.031,2.289c0.495,0,1.111-0.078,1.661-0.19c0.023,0,0.045-0.011,0.067-0.011c0.09,0,0.169,0.045,0.169,0.156
	v0.078c0,0.124-0.045,0.18-0.213,0.214c-0.539,0.113-1.179,0.192-1.684,0.192c-1.392,0-2.524-0.607-2.524-2.729v-0.74
	c0-1.549,0.786-2.683,2.267-2.683C124.577,212.431,125.261,213.508,125.261,215.102z M124.768,215.102
	c0-1.414-0.471-2.232-1.739-2.232c-1.246,0-1.773,0.909-1.773,2.244v0.057h3.513L124.768,215.102L124.768,215.102z M131.737,212.432
	c-0.595,0-1.246,0.191-1.808,0.461c-0.28-0.338-0.662-0.461-1.066-0.461c-0.595,0-1.246,0.258-1.706,0.484v-0.203
	c0-0.123-0.079-0.225-0.202-0.225h-0.09c-0.124,0-0.202,0.102-0.202,0.225v5.588c0,0.112,0.056,0.213,0.168,0.213h0.157
	c0.112,0,0.168-0.101,0.168-0.213v-4.96c0.516-0.247,1.111-0.471,1.605-0.471c0.595,0,1.055,0.325,1.055,1.368v4.063
	c0,0.112,0.044,0.213,0.157,0.213h0.168c0.123,0,0.168-0.101,0.168-0.213v-4.063c0-0.404-0.067-0.729-0.168-0.988
	c0.46-0.224,1.021-0.381,1.516-0.381c0.819,0,1.313,0.348,1.313,1.414v4.018c0,0.112,0.067,0.213,0.191,0.213h0.112
	c0.123,0,0.191-0.101,0.191-0.213v-4.018C133.466,212.949,132.68,212.432,131.737,212.432z M139.493,215.113v0.785
	c0,1.695-0.775,2.684-2.312,2.684c-1.538,0-2.313-0.988-2.313-2.684v-0.785c0-1.695,0.775-2.682,2.313-2.682
	C138.719,212.432,139.493,213.418,139.493,215.113z M138.999,215.113c0-1.381-0.504-2.244-1.817-2.244s-1.818,0.863-1.818,2.244
	v0.785c0,1.381,0.505,2.244,1.818,2.244s1.817-0.863,1.817-2.244V215.113z M143.713,212.488h-1.335v-1.156
	c0-0.111-0.067-0.213-0.18-0.213h-0.124c-0.124,0-0.191,0.102-0.191,0.213v1.156h-1.111c-0.123,0-0.213,0.057-0.213,0.168v0.111
	c0,0.113,0.09,0.18,0.213,0.18h1.111v4.422c0,0.965,0.471,1.213,1.269,1.213c0.19,0,0.415-0.012,0.583-0.035
	c0.158-0.021,0.191-0.089,0.191-0.178v-0.068c0-0.102-0.067-0.158-0.236-0.158h-0.538c-0.494,0-0.775-0.1-0.775-0.773v-4.422h1.335
	c0.124,0,0.213-0.066,0.213-0.18v-0.111C143.926,212.545,143.836,212.488,143.713,212.488z M149.493,215.102v0.303
	c0,0.124-0.102,0.215-0.213,0.215h-3.793v0.234c0,1.885,0.909,2.289,2.031,2.289c0.494,0,1.111-0.078,1.661-0.19
	c0.022,0,0.044-0.011,0.067-0.011c0.09,0,0.168,0.045,0.168,0.156v0.078c0,0.124-0.045,0.18-0.213,0.214
	c-0.539,0.113-1.177,0.192-1.683,0.192c-1.392,0-2.525-0.607-2.525-2.729v-0.74c0-1.549,0.785-2.683,2.266-2.683
	C148.808,212.431,149.493,213.508,149.493,215.102z M148.999,215.102c0-1.414-0.472-2.232-1.74-2.232
	c-1.245,0-1.772,0.909-1.772,2.244v0.057h3.513V215.102z M158.909,210.175h-0.124c-0.079,0-0.158,0.069-0.179,0.158l-2.291,7.552
	c-0.055,0.18-0.134,0.225-0.257,0.225s-0.202-0.045-0.259-0.225l-2.29-7.552c-0.022-0.09-0.101-0.158-0.179-0.158h-0.124
	c-0.124,0-0.19,0.091-0.19,0.202c0,0.023,0,0.057,0.011,0.08l2.301,7.574c0.113,0.382,0.37,0.551,0.73,0.551
	c0.359,0,0.618-0.17,0.729-0.551l2.301-7.574c0.012-0.023,0.012-0.057,0.012-0.08C159.101,210.265,159.032,210.175,158.909,210.175z
	 M160.774,210.121h-0.068c-0.112,0-0.213,0.1-0.213,0.213v0.83c0,0.123,0.101,0.213,0.213,0.213h0.068
	c0.112,0,0.212-0.091,0.212-0.213v-0.83C160.986,210.221,160.885,210.121,160.774,210.121z M160.774,212.488h-0.068
	c-0.112,0-0.213,0.102-0.213,0.213v5.6c0,0.112,0.101,0.213,0.213,0.213h0.068c0.112,0,0.212-0.101,0.212-0.213v-5.6
	C160.986,212.59,160.885,212.488,160.774,212.488z M167.002,215.102v0.303c0,0.124-0.101,0.215-0.214,0.215h-3.792v0.234
	c0,1.885,0.909,2.289,2.031,2.289c0.494,0,1.111-0.078,1.662-0.19c0.022,0,0.045-0.011,0.067-0.011c0.089,0,0.168,0.045,0.168,0.156
	v0.078c0,0.124-0.045,0.18-0.213,0.214c-0.539,0.113-1.178,0.192-1.684,0.192c-1.391,0-2.524-0.607-2.524-2.729v-0.74
	c0-1.549,0.786-2.683,2.266-2.683C166.318,212.431,167.002,213.508,167.002,215.102z M166.507,215.102
	c0-1.414-0.47-2.232-1.739-2.232c-1.245,0-1.772,0.909-1.772,2.244v0.057h3.511V215.102z M175.295,212.487h-0.068
	c-0.089,0-0.157,0.078-0.179,0.156l-1.212,5.219c-0.056,0.271-0.101,0.28-0.134,0.28c-0.012,0-0.012,0-0.023,0
	c-0.045,0-0.079-0.033-0.146-0.268l-1.212-4.333c-0.078-0.292-0.269-0.404-0.482-0.404c-0.213,0-0.403,0.112-0.482,0.404
	l-1.212,4.333c-0.067,0.234-0.101,0.268-0.146,0.268c-0.011,0-0.011,0-0.023,0c-0.033,0-0.078-0.01-0.134-0.28l-1.212-5.219
	c-0.022-0.078-0.091-0.156-0.179-0.156h-0.068c-0.124,0-0.213,0.102-0.213,0.213c0,0.022,0.011,0.034,0.011,0.057l1.235,5.218
	c0.101,0.427,0.234,0.607,0.583,0.607c0.36,0,0.461-0.227,0.573-0.641l1.189-4.265c0.022-0.09,0.045-0.101,0.067-0.101
	c0,0,0,0,0.011,0c0.013,0,0.013,0,0.013,0c0.021,0,0.044,0.011,0.066,0.101l1.19,4.265c0.111,0.414,0.213,0.641,0.572,0.641
	c0.349,0,0.482-0.181,0.584-0.607l1.234-5.218c0-0.022,0.011-0.034,0.011-0.057C175.509,212.589,175.419,212.487,175.295,212.487z
	 M177.239,210.121h-0.067c-0.112,0-0.214,0.1-0.214,0.213v0.83c0,0.123,0.102,0.213,0.214,0.213h0.067
	c0.112,0,0.212-0.091,0.212-0.213v-0.83C177.451,210.221,177.35,210.121,177.239,210.121z M177.239,212.488h-0.067
	c-0.112,0-0.214,0.102-0.214,0.213v5.6c0,0.112,0.102,0.213,0.214,0.213h0.067c0.112,0,0.212-0.101,0.212-0.213v-5.6
	C177.451,212.59,177.35,212.488,177.239,212.488z M181.437,212.432c-0.584,0-1.225,0.179-1.807,0.459v-0.179
	c0-0.123-0.08-0.225-0.204-0.225h-0.088c-0.124,0-0.202,0.102-0.202,0.225v5.588c0,0.112,0.1,0.214,0.212,0.214h0.068
	c0.111,0,0.213-0.102,0.213-0.214v-4.97c0.561-0.271,1.199-0.461,1.772-0.461c0.842,0,1.515,0.426,1.515,1.705v3.727
	c0,0.112,0.09,0.213,0.203,0.213h0.079c0.124,0,0.212-0.101,0.213-0.213v-3.727C183.411,213.014,182.513,212.432,181.437,212.432z
	 M189.685,212.667v0.124c-0.001,0.123-0.102,0.178-0.214,0.178h-0.583c0.225,0.182,0.617,0.573,0.617,1.393v0.09
	c0,1.065-0.561,1.83-2.323,1.83c-0.583,0-0.953-0.091-1.369-0.259c-0.235,0.101-0.381,0.259-0.381,0.481
	c0,0.146,0.067,0.281,0.326,0.349l2.021,0.528c1.199,0.313,1.795,0.605,1.795,1.514v0.102c0,1.01-0.605,1.738-2.379,1.738
	c-1.728,0-2.379-0.717-2.379-1.738v-0.102c0-0.785,0.471-1.391,0.841-1.615l-0.079-0.022c-0.416-0.124-0.594-0.415-0.594-0.753
	c0-0.269,0.146-0.572,0.471-0.717c-0.371-0.304-0.583-0.741-0.583-1.336v-0.09c0-0.865,0.393-1.874,2.312-1.874h2.289
	C189.583,212.487,189.685,212.555,189.685,212.667z M185.296,218.895v0.102c0,0.809,0.46,1.324,1.897,1.324
	c1.492,0,1.885-0.494,1.885-1.324v-0.102h0c0-0.628-0.235-0.785-1.415-1.089l-1.548-0.403
	C185.622,217.728,185.296,218.143,185.296,218.895z M187.181,212.914c-1.548,0-1.818,0.729-1.818,1.447v0.09
	c0,0.561,0.281,1.402,1.818,1.402c1.482,0,1.84-0.629,1.84-1.402v-0.09C189.022,213.553,188.64,212.914,187.181,212.914z"/>
</svg>
